<?xml version="1.0" encoding="UTF-8"?>
<svg fill="none" viewBox="0 0 1500 696" xmlns="http://www.w3.org/2000/svg">
<g clip-path="url(#c)">
<rect width="1500" height="696" fill="url(#a)"/>
<g clip-path="url(#b)" fill="#D2D6DB">
<circle cx="1" cy="1" r="1"/>
<circle cx="41" cy="1" r="1"/>
<circle cx="81" cy="1" r="1"/>
<circle cx="121" cy="1" r="1"/>
<circle cx="161" cy="1" r="1"/>
<circle cx="201" cy="1" r="1"/>
<circle cx="241" cy="1" r="1"/>
<circle cx="281" cy="1" r="1"/>
<circle cx="321" cy="1" r="1"/>
<circle cx="361" cy="1" r="1"/>
<circle cx="401" cy="1" r="1"/>
<circle cx="441" cy="1" r="1"/>
<circle cx="481" cy="1" r="1"/>
<circle cx="521" cy="1" r="1"/>
<circle cx="561" cy="1" r="1"/>
<circle cx="601" cy="1" r="1"/>
<circle cx="641" cy="1" r="1"/>
<circle cx="681" cy="1" r="1"/>
<circle cx="721" cy="1" r="1"/>
<circle cx="761" cy="1" r="1"/>
<circle cx="801" cy="1" r="1"/>
<circle cx="841" cy="1" r="1"/>
<circle cx="881" cy="1" r="1"/>
<circle cx="921" cy="1" r="1"/>
<circle cx="961" cy="1" r="1"/>
<circle cx="1001" cy="1" r="1"/>
<circle cx="1041" cy="1" r="1"/>
<circle cx="1081" cy="1" r="1"/>
<circle cx="1121" cy="1" r="1"/>
<circle cx="1161" cy="1" r="1"/>
<circle cx="1201" cy="1" r="1"/>
<circle cx="1241" cy="1" r="1"/>
<circle cx="1281" cy="1" r="1"/>
<circle cx="1321" cy="1" r="1"/>
<circle cx="1361" cy="1" r="1"/>
<circle cx="1401" cy="1" r="1"/>
<circle cx="1441" cy="1" r="1"/>
<circle cx="1481" cy="1" r="1"/>
<circle cx="1" cy="41" r="1"/>
<circle cx="41" cy="41" r="1"/>
<circle cx="81" cy="41" r="1"/>
<circle cx="121" cy="41" r="1"/>
<circle cx="161" cy="41" r="1"/>
<circle cx="201" cy="41" r="1"/>
<circle cx="241" cy="41" r="1"/>
<circle cx="281" cy="41" r="1"/>
<circle cx="321" cy="41" r="1"/>
<circle cx="361" cy="41" r="1"/>
<circle cx="401" cy="41" r="1"/>
<circle cx="441" cy="41" r="1"/>
<circle cx="481" cy="41" r="1"/>
<circle cx="521" cy="41" r="1"/>
<circle cx="561" cy="41" r="1"/>
<circle cx="601" cy="41" r="1"/>
<circle cx="641" cy="41" r="1"/>
<circle cx="681" cy="41" r="1"/>
<circle cx="721" cy="41" r="1"/>
<circle cx="761" cy="41" r="1"/>
<circle cx="801" cy="41" r="1"/>
<circle cx="841" cy="41" r="1"/>
<circle cx="881" cy="41" r="1"/>
<circle cx="921" cy="41" r="1"/>
<circle cx="961" cy="41" r="1"/>
<circle cx="1001" cy="41" r="1"/>
<circle cx="1041" cy="41" r="1"/>
<circle cx="1081" cy="41" r="1"/>
<circle cx="1121" cy="41" r="1"/>
<circle cx="1161" cy="41" r="1"/>
<circle cx="1201" cy="41" r="1"/>
<circle cx="1241" cy="41" r="1"/>
<circle cx="1281" cy="41" r="1"/>
<circle cx="1321" cy="41" r="1"/>
<circle cx="1361" cy="41" r="1"/>
<circle cx="1401" cy="41" r="1"/>
<circle cx="1441" cy="41" r="1"/>
<circle cx="1481" cy="41" r="1"/>
<circle cx="1" cy="81" r="1"/>
<circle cx="41" cy="81" r="1"/>
<circle cx="81" cy="81" r="1"/>
<circle cx="121" cy="81" r="1"/>
<circle cx="161" cy="81" r="1"/>
<circle cx="201" cy="81" r="1"/>
<circle cx="241" cy="81" r="1"/>
<circle cx="281" cy="81" r="1"/>
<circle cx="321" cy="81" r="1"/>
<circle cx="361" cy="81" r="1"/>
<circle cx="401" cy="81" r="1"/>
<circle cx="441" cy="81" r="1"/>
<circle cx="481" cy="81" r="1"/>
<circle cx="521" cy="81" r="1"/>
<circle cx="561" cy="81" r="1"/>
<circle cx="601" cy="81" r="1"/>
<circle cx="641" cy="81" r="1"/>
<circle cx="681" cy="81" r="1"/>
<circle cx="721" cy="81" r="1"/>
<circle cx="761" cy="81" r="1"/>
<circle cx="801" cy="81" r="1"/>
<circle cx="841" cy="81" r="1"/>
<circle cx="881" cy="81" r="1"/>
<circle cx="921" cy="81" r="1"/>
<circle cx="961" cy="81" r="1"/>
<circle cx="1001" cy="81" r="1"/>
<circle cx="1041" cy="81" r="1"/>
<circle cx="1081" cy="81" r="1"/>
<circle cx="1121" cy="81" r="1"/>
<circle cx="1161" cy="81" r="1"/>
<circle cx="1201" cy="81" r="1"/>
<circle cx="1241" cy="81" r="1"/>
<circle cx="1281" cy="81" r="1"/>
<circle cx="1321" cy="81" r="1"/>
<circle cx="1361" cy="81" r="1"/>
<circle cx="1401" cy="81" r="1"/>
<circle cx="1441" cy="81" r="1"/>
<circle cx="1481" cy="81" r="1"/>
<circle cx="1" cy="121" r="1"/>
<circle cx="41" cy="121" r="1"/>
<circle cx="81" cy="121" r="1"/>
<circle cx="121" cy="121" r="1"/>
<circle cx="161" cy="121" r="1"/>
<circle cx="201" cy="121" r="1"/>
<circle cx="241" cy="121" r="1"/>
<circle cx="281" cy="121" r="1"/>
<circle cx="321" cy="121" r="1"/>
<circle cx="361" cy="121" r="1"/>
<circle cx="401" cy="121" r="1"/>
<circle cx="441" cy="121" r="1"/>
<circle cx="481" cy="121" r="1"/>
<circle cx="521" cy="121" r="1"/>
<circle cx="561" cy="121" r="1"/>
<circle cx="601" cy="121" r="1"/>
<circle cx="641" cy="121" r="1"/>
<circle cx="681" cy="121" r="1"/>
<circle cx="721" cy="121" r="1"/>
<circle cx="761" cy="121" r="1"/>
<circle cx="801" cy="121" r="1"/>
<circle cx="841" cy="121" r="1"/>
<circle cx="881" cy="121" r="1"/>
<circle cx="921" cy="121" r="1"/>
<circle cx="961" cy="121" r="1"/>
<circle cx="1001" cy="121" r="1"/>
<circle cx="1041" cy="121" r="1"/>
<circle cx="1081" cy="121" r="1"/>
<circle cx="1121" cy="121" r="1"/>
<circle cx="1161" cy="121" r="1"/>
<circle cx="1201" cy="121" r="1"/>
<circle cx="1241" cy="121" r="1"/>
<circle cx="1281" cy="121" r="1"/>
<circle cx="1321" cy="121" r="1"/>
<circle cx="1361" cy="121" r="1"/>
<circle cx="1401" cy="121" r="1"/>
<circle cx="1441" cy="121" r="1"/>
<circle cx="1481" cy="121" r="1"/>
<circle cx="1" cy="161" r="1"/>
<circle cx="41" cy="161" r="1"/>
<circle cx="81" cy="161" r="1"/>
<circle cx="121" cy="161" r="1"/>
<circle cx="161" cy="161" r="1"/>
<circle cx="201" cy="161" r="1"/>
<circle cx="241" cy="161" r="1"/>
<circle cx="281" cy="161" r="1"/>
<circle cx="321" cy="161" r="1"/>
<circle cx="361" cy="161" r="1"/>
<circle cx="401" cy="161" r="1"/>
<circle cx="441" cy="161" r="1"/>
<circle cx="481" cy="161" r="1"/>
<circle cx="521" cy="161" r="1"/>
<circle cx="561" cy="161" r="1"/>
<circle cx="601" cy="161" r="1"/>
<circle cx="641" cy="161" r="1"/>
<circle cx="681" cy="161" r="1"/>
<circle cx="721" cy="161" r="1"/>
<circle cx="761" cy="161" r="1"/>
<circle cx="801" cy="161" r="1"/>
<circle cx="841" cy="161" r="1"/>
<circle cx="881" cy="161" r="1"/>
<circle cx="921" cy="161" r="1"/>
<circle cx="961" cy="161" r="1"/>
<circle cx="1001" cy="161" r="1"/>
<circle cx="1041" cy="161" r="1"/>
<circle cx="1081" cy="161" r="1"/>
<circle cx="1121" cy="161" r="1"/>
<circle cx="1161" cy="161" r="1"/>
<circle cx="1201" cy="161" r="1"/>
<circle cx="1241" cy="161" r="1"/>
<circle cx="1281" cy="161" r="1"/>
<circle cx="1321" cy="161" r="1"/>
<circle cx="1361" cy="161" r="1"/>
<circle cx="1401" cy="161" r="1"/>
<circle cx="1441" cy="161" r="1"/>
<circle cx="1481" cy="161" r="1"/>
<circle cx="1" cy="201" r="1"/>
<circle cx="41" cy="201" r="1"/>
<circle cx="81" cy="201" r="1"/>
<circle cx="121" cy="201" r="1"/>
<circle cx="161" cy="201" r="1"/>
<circle cx="201" cy="201" r="1"/>
<circle cx="241" cy="201" r="1"/>
<circle cx="281" cy="201" r="1"/>
<circle cx="321" cy="201" r="1"/>
<circle cx="361" cy="201" r="1"/>
<circle cx="401" cy="201" r="1"/>
<circle cx="441" cy="201" r="1"/>
<circle cx="481" cy="201" r="1"/>
<circle cx="521" cy="201" r="1"/>
<circle cx="561" cy="201" r="1"/>
<circle cx="601" cy="201" r="1"/>
<circle cx="641" cy="201" r="1"/>
<circle cx="681" cy="201" r="1"/>
<circle cx="721" cy="201" r="1"/>
<circle cx="761" cy="201" r="1"/>
<circle cx="801" cy="201" r="1"/>
<circle cx="841" cy="201" r="1"/>
<circle cx="881" cy="201" r="1"/>
<circle cx="921" cy="201" r="1"/>
<circle cx="961" cy="201" r="1"/>
<circle cx="1001" cy="201" r="1"/>
<circle cx="1041" cy="201" r="1"/>
<circle cx="1081" cy="201" r="1"/>
<circle cx="1121" cy="201" r="1"/>
<circle cx="1161" cy="201" r="1"/>
<circle cx="1201" cy="201" r="1"/>
<circle cx="1241" cy="201" r="1"/>
<circle cx="1281" cy="201" r="1"/>
<circle cx="1321" cy="201" r="1"/>
<circle cx="1361" cy="201" r="1"/>
<circle cx="1401" cy="201" r="1"/>
<circle cx="1441" cy="201" r="1"/>
<circle cx="1481" cy="201" r="1"/>
<circle cx="1" cy="241" r="1"/>
<circle cx="41" cy="241" r="1"/>
<circle cx="81" cy="241" r="1"/>
<circle cx="121" cy="241" r="1"/>
<circle cx="161" cy="241" r="1"/>
<circle cx="201" cy="241" r="1"/>
<circle cx="241" cy="241" r="1"/>
<circle cx="281" cy="241" r="1"/>
<circle cx="321" cy="241" r="1"/>
<circle cx="361" cy="241" r="1"/>
<circle cx="401" cy="241" r="1"/>
<circle cx="441" cy="241" r="1"/>
<circle cx="481" cy="241" r="1"/>
<circle cx="521" cy="241" r="1"/>
<circle cx="561" cy="241" r="1"/>
<circle cx="601" cy="241" r="1"/>
<circle cx="641" cy="241" r="1"/>
<circle cx="681" cy="241" r="1"/>
<circle cx="721" cy="241" r="1"/>
<circle cx="761" cy="241" r="1"/>
<circle cx="801" cy="241" r="1"/>
<circle cx="841" cy="241" r="1"/>
<circle cx="881" cy="241" r="1"/>
<circle cx="921" cy="241" r="1"/>
<circle cx="961" cy="241" r="1"/>
<circle cx="1001" cy="241" r="1"/>
<circle cx="1041" cy="241" r="1"/>
<circle cx="1081" cy="241" r="1"/>
<circle cx="1121" cy="241" r="1"/>
<circle cx="1161" cy="241" r="1"/>
<circle cx="1201" cy="241" r="1"/>
<circle cx="1241" cy="241" r="1"/>
<circle cx="1281" cy="241" r="1"/>
<circle cx="1321" cy="241" r="1"/>
<circle cx="1361" cy="241" r="1"/>
<circle cx="1401" cy="241" r="1"/>
<circle cx="1441" cy="241" r="1"/>
<circle cx="1481" cy="241" r="1"/>
<circle cx="1" cy="281" r="1"/>
<circle cx="41" cy="281" r="1"/>
<circle cx="81" cy="281" r="1"/>
<circle cx="121" cy="281" r="1"/>
<circle cx="161" cy="281" r="1"/>
<circle cx="201" cy="281" r="1"/>
<circle cx="241" cy="281" r="1"/>
<circle cx="281" cy="281" r="1"/>
<circle cx="321" cy="281" r="1"/>
<circle cx="361" cy="281" r="1"/>
<circle cx="401" cy="281" r="1"/>
<circle cx="441" cy="281" r="1"/>
<circle cx="481" cy="281" r="1"/>
<circle cx="521" cy="281" r="1"/>
<circle cx="561" cy="281" r="1"/>
<circle cx="601" cy="281" r="1"/>
<circle cx="641" cy="281" r="1"/>
<circle cx="681" cy="281" r="1"/>
<circle cx="721" cy="281" r="1"/>
<circle cx="761" cy="281" r="1"/>
<circle cx="801" cy="281" r="1"/>
<circle cx="841" cy="281" r="1"/>
<circle cx="881" cy="281" r="1"/>
<circle cx="921" cy="281" r="1"/>
<circle cx="961" cy="281" r="1"/>
<circle cx="1001" cy="281" r="1"/>
<circle cx="1041" cy="281" r="1"/>
<circle cx="1081" cy="281" r="1"/>
<circle cx="1121" cy="281" r="1"/>
<circle cx="1161" cy="281" r="1"/>
<circle cx="1201" cy="281" r="1"/>
<circle cx="1241" cy="281" r="1"/>
<circle cx="1281" cy="281" r="1"/>
<circle cx="1321" cy="281" r="1"/>
<circle cx="1361" cy="281" r="1"/>
<circle cx="1401" cy="281" r="1"/>
<circle cx="1441" cy="281" r="1"/>
<circle cx="1481" cy="281" r="1"/>
<circle cx="1" cy="321" r="1"/>
<circle cx="41" cy="321" r="1"/>
<circle cx="81" cy="321" r="1"/>
<circle cx="121" cy="321" r="1"/>
<circle cx="161" cy="321" r="1"/>
<circle cx="201" cy="321" r="1"/>
<circle cx="241" cy="321" r="1"/>
<circle cx="281" cy="321" r="1"/>
<circle cx="321" cy="321" r="1"/>
<circle cx="361" cy="321" r="1"/>
<circle cx="401" cy="321" r="1"/>
<circle cx="441" cy="321" r="1"/>
<circle cx="481" cy="321" r="1"/>
<circle cx="521" cy="321" r="1"/>
<circle cx="561" cy="321" r="1"/>
<circle cx="601" cy="321" r="1"/>
<circle cx="641" cy="321" r="1"/>
<circle cx="681" cy="321" r="1"/>
<circle cx="721" cy="321" r="1"/>
<circle cx="761" cy="321" r="1"/>
<circle cx="801" cy="321" r="1"/>
<circle cx="841" cy="321" r="1"/>
<circle cx="881" cy="321" r="1"/>
<circle cx="921" cy="321" r="1"/>
<circle cx="961" cy="321" r="1"/>
<circle cx="1001" cy="321" r="1"/>
<circle cx="1041" cy="321" r="1"/>
<circle cx="1081" cy="321" r="1"/>
<circle cx="1121" cy="321" r="1"/>
<circle cx="1161" cy="321" r="1"/>
<circle cx="1201" cy="321" r="1"/>
<circle cx="1241" cy="321" r="1"/>
<circle cx="1281" cy="321" r="1"/>
<circle cx="1321" cy="321" r="1"/>
<circle cx="1361" cy="321" r="1"/>
<circle cx="1401" cy="321" r="1"/>
<circle cx="1441" cy="321" r="1"/>
<circle cx="1481" cy="321" r="1"/>
<circle cx="1" cy="361" r="1"/>
<circle cx="41" cy="361" r="1"/>
<circle cx="81" cy="361" r="1"/>
<circle cx="121" cy="361" r="1"/>
<circle cx="161" cy="361" r="1"/>
<circle cx="201" cy="361" r="1"/>
<circle cx="241" cy="361" r="1"/>
<circle cx="281" cy="361" r="1"/>
<circle cx="321" cy="361" r="1"/>
<circle cx="361" cy="361" r="1"/>
<circle cx="401" cy="361" r="1"/>
<circle cx="441" cy="361" r="1"/>
<circle cx="481" cy="361" r="1"/>
<circle cx="521" cy="361" r="1"/>
<circle cx="561" cy="361" r="1"/>
<circle cx="601" cy="361" r="1"/>
<circle cx="641" cy="361" r="1"/>
<circle cx="681" cy="361" r="1"/>
<circle cx="721" cy="361" r="1"/>
<circle cx="761" cy="361" r="1"/>
<circle cx="801" cy="361" r="1"/>
<circle cx="841" cy="361" r="1"/>
<circle cx="881" cy="361" r="1"/>
<circle cx="921" cy="361" r="1"/>
<circle cx="961" cy="361" r="1"/>
<circle cx="1001" cy="361" r="1"/>
<circle cx="1041" cy="361" r="1"/>
<circle cx="1081" cy="361" r="1"/>
<circle cx="1121" cy="361" r="1"/>
<circle cx="1161" cy="361" r="1"/>
<circle cx="1201" cy="361" r="1"/>
<circle cx="1241" cy="361" r="1"/>
<circle cx="1281" cy="361" r="1"/>
<circle cx="1321" cy="361" r="1"/>
<circle cx="1361" cy="361" r="1"/>
<circle cx="1401" cy="361" r="1"/>
<circle cx="1441" cy="361" r="1"/>
<circle cx="1481" cy="361" r="1"/>
<circle cx="1" cy="401" r="1"/>
<circle cx="41" cy="401" r="1"/>
<circle cx="81" cy="401" r="1"/>
<circle cx="121" cy="401" r="1"/>
<circle cx="161" cy="401" r="1"/>
<circle cx="201" cy="401" r="1"/>
<circle cx="241" cy="401" r="1"/>
<circle cx="281" cy="401" r="1"/>
<circle cx="321" cy="401" r="1"/>
<circle cx="361" cy="401" r="1"/>
<circle cx="401" cy="401" r="1"/>
<circle cx="441" cy="401" r="1"/>
<circle cx="481" cy="401" r="1"/>
<circle cx="521" cy="401" r="1"/>
<circle cx="561" cy="401" r="1"/>
<circle cx="601" cy="401" r="1"/>
<circle cx="641" cy="401" r="1"/>
<circle cx="681" cy="401" r="1"/>
<circle cx="721" cy="401" r="1"/>
<circle cx="761" cy="401" r="1"/>
<circle cx="801" cy="401" r="1"/>
<circle cx="841" cy="401" r="1"/>
<circle cx="881" cy="401" r="1"/>
<circle cx="921" cy="401" r="1"/>
<circle cx="961" cy="401" r="1"/>
<circle cx="1001" cy="401" r="1"/>
<circle cx="1041" cy="401" r="1"/>
<circle cx="1081" cy="401" r="1"/>
<circle cx="1121" cy="401" r="1"/>
<circle cx="1161" cy="401" r="1"/>
<circle cx="1201" cy="401" r="1"/>
<circle cx="1241" cy="401" r="1"/>
<circle cx="1281" cy="401" r="1"/>
<circle cx="1321" cy="401" r="1"/>
<circle cx="1361" cy="401" r="1"/>
<circle cx="1401" cy="401" r="1"/>
<circle cx="1441" cy="401" r="1"/>
<circle cx="1481" cy="401" r="1"/>
<circle cx="1" cy="441" r="1"/>
<circle cx="41" cy="441" r="1"/>
<circle cx="81" cy="441" r="1"/>
<circle cx="121" cy="441" r="1"/>
<circle cx="161" cy="441" r="1"/>
<circle cx="201" cy="441" r="1"/>
<circle cx="241" cy="441" r="1"/>
<circle cx="281" cy="441" r="1"/>
<circle cx="321" cy="441" r="1"/>
<circle cx="361" cy="441" r="1"/>
<circle cx="401" cy="441" r="1"/>
<circle cx="441" cy="441" r="1"/>
<circle cx="481" cy="441" r="1"/>
<circle cx="521" cy="441" r="1"/>
<circle cx="561" cy="441" r="1"/>
<circle cx="601" cy="441" r="1"/>
<circle cx="641" cy="441" r="1"/>
<circle cx="681" cy="441" r="1"/>
<circle cx="721" cy="441" r="1"/>
<circle cx="761" cy="441" r="1"/>
<circle cx="801" cy="441" r="1"/>
<circle cx="841" cy="441" r="1"/>
<circle cx="881" cy="441" r="1"/>
<circle cx="921" cy="441" r="1"/>
<circle cx="961" cy="441" r="1"/>
<circle cx="1001" cy="441" r="1"/>
<circle cx="1041" cy="441" r="1"/>
<circle cx="1081" cy="441" r="1"/>
<circle cx="1121" cy="441" r="1"/>
<circle cx="1161" cy="441" r="1"/>
<circle cx="1201" cy="441" r="1"/>
<circle cx="1241" cy="441" r="1"/>
<circle cx="1281" cy="441" r="1"/>
<circle cx="1321" cy="441" r="1"/>
<circle cx="1361" cy="441" r="1"/>
<circle cx="1401" cy="441" r="1"/>
<circle cx="1441" cy="441" r="1"/>
<circle cx="1481" cy="441" r="1"/>
<circle cx="1" cy="481" r="1"/>
<circle cx="41" cy="481" r="1"/>
<circle cx="81" cy="481" r="1"/>
<circle cx="121" cy="481" r="1"/>
<circle cx="161" cy="481" r="1"/>
<circle cx="201" cy="481" r="1"/>
<circle cx="241" cy="481" r="1"/>
<circle cx="281" cy="481" r="1"/>
<circle cx="321" cy="481" r="1"/>
<circle cx="361" cy="481" r="1"/>
<circle cx="401" cy="481" r="1"/>
<circle cx="441" cy="481" r="1"/>
<circle cx="481" cy="481" r="1"/>
<circle cx="521" cy="481" r="1"/>
<circle cx="561" cy="481" r="1"/>
<circle cx="601" cy="481" r="1"/>
<circle cx="641" cy="481" r="1"/>
<circle cx="681" cy="481" r="1"/>
<circle cx="721" cy="481" r="1"/>
<circle cx="761" cy="481" r="1"/>
<circle cx="801" cy="481" r="1"/>
<circle cx="841" cy="481" r="1"/>
<circle cx="881" cy="481" r="1"/>
<circle cx="921" cy="481" r="1"/>
<circle cx="961" cy="481" r="1"/>
<circle cx="1001" cy="481" r="1"/>
<circle cx="1041" cy="481" r="1"/>
<circle cx="1081" cy="481" r="1"/>
<circle cx="1121" cy="481" r="1"/>
<circle cx="1161" cy="481" r="1"/>
<circle cx="1201" cy="481" r="1"/>
<circle cx="1241" cy="481" r="1"/>
<circle cx="1281" cy="481" r="1"/>
<circle cx="1321" cy="481" r="1"/>
<circle cx="1361" cy="481" r="1"/>
<circle cx="1401" cy="481" r="1"/>
<circle cx="1441" cy="481" r="1"/>
<circle cx="1481" cy="481" r="1"/>
<circle cx="1" cy="521" r="1"/>
<circle cx="41" cy="521" r="1"/>
<circle cx="81" cy="521" r="1"/>
<circle cx="121" cy="521" r="1"/>
<circle cx="161" cy="521" r="1"/>
<circle cx="201" cy="521" r="1"/>
<circle cx="241" cy="521" r="1"/>
<circle cx="281" cy="521" r="1"/>
<circle cx="321" cy="521" r="1"/>
<circle cx="361" cy="521" r="1"/>
<circle cx="401" cy="521" r="1"/>
<circle cx="441" cy="521" r="1"/>
<circle cx="481" cy="521" r="1"/>
<circle cx="521" cy="521" r="1"/>
<circle cx="561" cy="521" r="1"/>
<circle cx="601" cy="521" r="1"/>
<circle cx="641" cy="521" r="1"/>
<circle cx="681" cy="521" r="1"/>
<circle cx="721" cy="521" r="1"/>
<circle cx="761" cy="521" r="1"/>
<circle cx="801" cy="521" r="1"/>
<circle cx="841" cy="521" r="1"/>
<circle cx="881" cy="521" r="1"/>
<circle cx="921" cy="521" r="1"/>
<circle cx="961" cy="521" r="1"/>
<circle cx="1001" cy="521" r="1"/>
<circle cx="1041" cy="521" r="1"/>
<circle cx="1081" cy="521" r="1"/>
<circle cx="1121" cy="521" r="1"/>
<circle cx="1161" cy="521" r="1"/>
<circle cx="1201" cy="521" r="1"/>
<circle cx="1241" cy="521" r="1"/>
<circle cx="1281" cy="521" r="1"/>
<circle cx="1321" cy="521" r="1"/>
<circle cx="1361" cy="521" r="1"/>
<circle cx="1401" cy="521" r="1"/>
<circle cx="1441" cy="521" r="1"/>
<circle cx="1481" cy="521" r="1"/>
<circle cx="1" cy="561" r="1"/>
<circle cx="41" cy="561" r="1"/>
<circle cx="81" cy="561" r="1"/>
<circle cx="121" cy="561" r="1"/>
<circle cx="161" cy="561" r="1"/>
<circle cx="201" cy="561" r="1"/>
<circle cx="241" cy="561" r="1"/>
<circle cx="281" cy="561" r="1"/>
<circle cx="321" cy="561" r="1"/>
<circle cx="361" cy="561" r="1"/>
<circle cx="401" cy="561" r="1"/>
<circle cx="441" cy="561" r="1"/>
<circle cx="481" cy="561" r="1"/>
<circle cx="521" cy="561" r="1"/>
<circle cx="561" cy="561" r="1"/>
<circle cx="601" cy="561" r="1"/>
<circle cx="641" cy="561" r="1"/>
<circle cx="681" cy="561" r="1"/>
<circle cx="721" cy="561" r="1"/>
<circle cx="761" cy="561" r="1"/>
<circle cx="801" cy="561" r="1"/>
<circle cx="841" cy="561" r="1"/>
<circle cx="881" cy="561" r="1"/>
<circle cx="921" cy="561" r="1"/>
<circle cx="961" cy="561" r="1"/>
<circle cx="1001" cy="561" r="1"/>
<circle cx="1041" cy="561" r="1"/>
<circle cx="1081" cy="561" r="1"/>
<circle cx="1121" cy="561" r="1"/>
<circle cx="1161" cy="561" r="1"/>
<circle cx="1201" cy="561" r="1"/>
<circle cx="1241" cy="561" r="1"/>
<circle cx="1281" cy="561" r="1"/>
<circle cx="1321" cy="561" r="1"/>
<circle cx="1361" cy="561" r="1"/>
<circle cx="1401" cy="561" r="1"/>
<circle cx="1441" cy="561" r="1"/>
<circle cx="1481" cy="561" r="1"/>
<circle cx="1" cy="601" r="1"/>
<circle cx="41" cy="601" r="1"/>
<circle cx="81" cy="601" r="1"/>
<circle cx="121" cy="601" r="1"/>
<circle cx="161" cy="601" r="1"/>
<circle cx="201" cy="601" r="1"/>
<circle cx="241" cy="601" r="1"/>
<circle cx="281" cy="601" r="1"/>
<circle cx="321" cy="601" r="1"/>
<circle cx="361" cy="601" r="1"/>
<circle cx="401" cy="601" r="1"/>
<circle cx="441" cy="601" r="1"/>
<circle cx="481" cy="601" r="1"/>
<circle cx="521" cy="601" r="1"/>
<circle cx="561" cy="601" r="1"/>
<circle cx="601" cy="601" r="1"/>
<circle cx="641" cy="601" r="1"/>
<circle cx="681" cy="601" r="1"/>
<circle cx="721" cy="601" r="1"/>
<circle cx="761" cy="601" r="1"/>
<circle cx="801" cy="601" r="1"/>
<circle cx="841" cy="601" r="1"/>
<circle cx="881" cy="601" r="1"/>
<circle cx="921" cy="601" r="1"/>
<circle cx="961" cy="601" r="1"/>
<circle cx="1001" cy="601" r="1"/>
<circle cx="1041" cy="601" r="1"/>
<circle cx="1081" cy="601" r="1"/>
<circle cx="1121" cy="601" r="1"/>
<circle cx="1161" cy="601" r="1"/>
<circle cx="1201" cy="601" r="1"/>
<circle cx="1241" cy="601" r="1"/>
<circle cx="1281" cy="601" r="1"/>
<circle cx="1321" cy="601" r="1"/>
<circle cx="1361" cy="601" r="1"/>
<circle cx="1401" cy="601" r="1"/>
<circle cx="1441" cy="601" r="1"/>
<circle cx="1481" cy="601" r="1"/>
<circle cx="1" cy="641" r="1"/>
<circle cx="41" cy="641" r="1"/>
<circle cx="81" cy="641" r="1"/>
<circle cx="121" cy="641" r="1"/>
<circle cx="161" cy="641" r="1"/>
<circle cx="201" cy="641" r="1"/>
<circle cx="241" cy="641" r="1"/>
<circle cx="281" cy="641" r="1"/>
<circle cx="321" cy="641" r="1"/>
<circle cx="361" cy="641" r="1"/>
<circle cx="401" cy="641" r="1"/>
<circle cx="441" cy="641" r="1"/>
<circle cx="481" cy="641" r="1"/>
<circle cx="521" cy="641" r="1"/>
<circle cx="561" cy="641" r="1"/>
<circle cx="601" cy="641" r="1"/>
<circle cx="641" cy="641" r="1"/>
<circle cx="681" cy="641" r="1"/>
<circle cx="721" cy="641" r="1"/>
<circle cx="761" cy="641" r="1"/>
<circle cx="801" cy="641" r="1"/>
<circle cx="841" cy="641" r="1"/>
<circle cx="881" cy="641" r="1"/>
<circle cx="921" cy="641" r="1"/>
<circle cx="961" cy="641" r="1"/>
<circle cx="1001" cy="641" r="1"/>
<circle cx="1041" cy="641" r="1"/>
<circle cx="1081" cy="641" r="1"/>
<circle cx="1121" cy="641" r="1"/>
<circle cx="1161" cy="641" r="1"/>
<circle cx="1201" cy="641" r="1"/>
<circle cx="1241" cy="641" r="1"/>
<circle cx="1281" cy="641" r="1"/>
<circle cx="1321" cy="641" r="1"/>
<circle cx="1361" cy="641" r="1"/>
<circle cx="1401" cy="641" r="1"/>
<circle cx="1441" cy="641" r="1"/>
<circle cx="1481" cy="641" r="1"/>
<circle cx="1" cy="681" r="1"/>
<circle cx="41" cy="681" r="1"/>
<circle cx="81" cy="681" r="1"/>
<circle cx="121" cy="681" r="1"/>
<circle cx="161" cy="681" r="1"/>
<circle cx="201" cy="681" r="1"/>
<circle cx="241" cy="681" r="1"/>
<circle cx="281" cy="681" r="1"/>
<circle cx="321" cy="681" r="1"/>
<circle cx="361" cy="681" r="1"/>
<circle cx="401" cy="681" r="1"/>
<circle cx="441" cy="681" r="1"/>
<circle cx="481" cy="681" r="1"/>
<circle cx="521" cy="681" r="1"/>
<circle cx="561" cy="681" r="1"/>
<circle cx="601" cy="681" r="1"/>
<circle cx="641" cy="681" r="1"/>
<circle cx="681" cy="681" r="1"/>
<circle cx="721" cy="681" r="1"/>
<circle cx="761" cy="681" r="1"/>
<circle cx="801" cy="681" r="1"/>
<circle cx="841" cy="681" r="1"/>
<circle cx="881" cy="681" r="1"/>
<circle cx="921" cy="681" r="1"/>
<circle cx="961" cy="681" r="1"/>
<circle cx="1001" cy="681" r="1"/>
<circle cx="1041" cy="681" r="1"/>
<circle cx="1081" cy="681" r="1"/>
<circle cx="1121" cy="681" r="1"/>
<circle cx="1161" cy="681" r="1"/>
<circle cx="1201" cy="681" r="1"/>
<circle cx="1241" cy="681" r="1"/>
<circle cx="1281" cy="681" r="1"/>
<circle cx="1321" cy="681" r="1"/>
<circle cx="1361" cy="681" r="1"/>
<circle cx="1401" cy="681" r="1"/>
<circle cx="1441" cy="681" r="1"/>
<circle cx="1481" cy="681" r="1"/>
</g>
<path d="m517.84 376.99c-34.531 0-56.113-23.74-56.113-61.841v-0.166c0-38.017 21.665-61.757 56.113-61.757 34.531 0 56.113 23.823 56.113 61.757v0.166c0 38.018-21.499 61.841-56.113 61.841zm0-16.435c22.993 0 37.104-17.764 37.104-45.406v-0.166c0-27.807-14.36-45.322-37.104-45.322-22.661 0-37.188 17.432-37.188 45.322v0.166c0 27.891 14.444 45.406 37.188 45.406zm71.719 43.496v-116.38h17.929v15.024h0.415c5.23-10.376 14.859-16.684 27.31-16.684 22.246 0 36.523 17.431 36.523 45.322v0.083c0 27.808-14.36 45.322-36.274 45.322-12.368 0-22.412-6.308-27.559-16.435h-0.415v43.745h-17.929zm41.006-42.749c14.111 0 22.91-11.455 22.91-29.883v-0.083c0-18.594-8.882-29.966-22.91-29.966-13.614 0-23.16 11.787-23.16 29.966v0.083c0 18.096 9.629 29.883 23.16 29.883zm92.387 15.439c-25.649 0-41.172-17.514-41.172-45.073v-0.083c0-27.31 15.772-45.571 40.259-45.571s39.512 17.597 39.512 43.828v6.059h-61.841c0.332 16.519 9.38 26.148 23.657 26.148 10.625 0 17.681-5.479 19.922-12.036l0.249-0.664h17.017l-0.166 0.913c-2.823 13.862-16.27 26.479-37.437 26.479zm-0.83-76.035c-11.621 0-20.586 7.886-22.163 22.495h43.828c-1.494-15.107-9.961-22.495-21.665-22.495zm53.374 74.292v-87.324h17.93v13.198h0.415c4.565-8.882 13.53-14.858 26.728-14.858 19.175 0 30.215 12.368 30.215 32.456v56.528h-18.012v-53.125c0-13.115-6.143-20.503-18.594-20.503-12.617 0-20.752 9.131-20.752 22.744v50.884h-17.93zm104.42 0v-103.76h-36.689v-16.02h91.889v16.02h-36.606v103.76h-18.594zm111.23 1.992c-26.894 0-44.658-12.783-46.152-33.867l-0.083-1.245h18.096l0.166 1.079c1.66 11.04 12.7 17.93 28.721 17.93 16.025 0 26.145-7.222 26.145-18.428v-0.083c0-9.629-6.56-14.858-22.41-18.345l-13.032-2.739c-23.492-4.981-34.864-15.772-34.864-33.535v-0.083c0.083-20.42 18.096-34.448 43.413-34.448 24.983 0 42.083 13.613 43.333 33.701l0.08 1.411h-18.1l-0.08-1.162c-1.66-11.123-11.29-17.847-25.482-17.847-14.858 0.083-24.321 7.139-24.321 17.598v0.083c0 8.965 6.807 14.443 21.748 17.68l13.115 2.74c24.74 5.229 35.36 15.273 35.36 33.784v0.083c0 21.831-17.26 35.693-45.653 35.693z" fill="#fff"/>
<path d="m461.56 473.45c-6.491 0-10.826-4.694-10.826-12.129v-0.045c0-7.434 4.358-12.084 10.804-12.084s10.826 4.627 10.826 12.084v0.045c0 7.457-4.357 12.129-10.804 12.129zm0.023-3.459c4.11 0 6.783-3.189 6.783-8.67v-0.045c0-5.48-2.695-8.625-6.828-8.625-4.065 0-6.806 3.167-6.806 8.625v0.045c0 5.503 2.718 8.67 6.851 8.67zm14.734 10.871v-31.22h3.909v3.953h0.089c1.46-2.718 4.066-4.403 7.412-4.403 5.975 0 9.928 4.762 9.928 12.129v0.023c0 7.367-3.998 12.106-9.86 12.106-3.302 0-6.02-1.662-7.48-4.357h-0.089v11.769h-3.909zm10.647-10.871c4.133 0 6.693-3.324 6.693-8.647v-0.023c0-5.368-2.56-8.67-6.693-8.67-3.953 0-6.761 3.437-6.761 8.67v0.023c0 5.211 2.83 8.647 6.761 8.647zm24.258 3.459c-6.716 0-10.759-4.694-10.759-12.039v-0.022c0-7.233 4.133-12.197 10.512-12.197 6.378 0 10.264 4.74 10.264 11.747v1.438h-16.823c0.09 4.807 2.74 7.614 6.895 7.614 2.965 0 5.054-1.482 5.728-3.481l0.067-0.202h3.841l-0.045 0.224c-0.763 3.864-4.582 6.918-9.68 6.918zm-0.27-20.799c-3.392 0-6.042 2.314-6.469 6.671h12.781c-0.382-4.537-2.898-6.671-6.312-6.671zm14.24 20.35v-23.359h3.909v3.324h0.089c1.258-2.179 3.639-3.774 7.188-3.774 5.121 0 8.086 3.325 8.086 8.648v15.161h-3.908v-14.465c0-3.796-1.775-5.885-5.369-5.885-3.683 0-6.086 2.628-6.086 6.604v13.746h-3.909zm41.98 0.449c-5.503 0-8.827-2.807-9.299-6.985l-0.022-0.202h3.908l0.045 0.224c0.471 2.336 2.201 3.706 5.39 3.706 3.167 0 5.054-1.325 5.054-3.436v-0.023c0-1.684-0.876-2.628-3.526-3.279l-3.706-0.898c-4.403-1.056-6.537-3.1-6.537-6.469v-0.023c0-4.02 3.527-6.873 8.581-6.873 5.121 0 8.377 2.988 8.669 6.896l0.023 0.292h-3.729l-0.022-0.157c-0.315-2.269-2.044-3.774-4.941-3.774-2.831 0-4.583 1.37-4.583 3.437v0.022c0 1.595 1.056 2.696 3.639 3.324l3.706 0.899c4.717 1.145 6.424 3.01 6.424 6.334v0.022c0 4.088-3.863 6.963-9.074 6.963zm22.82 0c-6.491 0-10.826-4.694-10.826-12.129v-0.045c0-7.434 4.357-12.084 10.804-12.084 6.446 0 10.826 4.627 10.826 12.084v0.045c0 7.457-4.358 12.129-10.804 12.129zm0.023-3.459c4.11 0 6.783-3.189 6.783-8.67v-0.045c0-5.48-2.696-8.625-6.828-8.625-4.066 0-6.806 3.167-6.806 8.625v0.045c0 5.503 2.718 8.67 6.851 8.67zm22.708 3.459c-5.121 0-8.086-3.324-8.086-8.647v-15.161h3.908v14.464c0 3.796 1.774 5.885 5.368 5.885 3.684 0 6.087-2.628 6.087-6.603v-13.746h3.908v23.359h-3.908v-3.324h-0.09c-1.258 2.178-3.639 3.773-7.187 3.773zm16.284-0.449v-23.359h3.908v3.953h0.09c0.786-2.696 2.807-4.403 5.435-4.403 0.674 0 1.258 0.113 1.573 0.158v3.796c-0.315-0.113-1.146-0.225-2.089-0.225-3.032 0-5.009 2.111-5.009 5.66v14.42h-3.908zm22.753 0.449c-6.626 0-10.826-4.717-10.826-12.151v-0.023c0-7.367 4.29-12.084 10.781-12.084 5.817 0 9.254 3.864 9.748 7.862l0.022 0.179h-3.818l-0.045-0.179c-0.584-2.336-2.471-4.403-5.907-4.403-4.066 0-6.783 3.37-6.783 8.67v0.023c0 5.435 2.785 8.647 6.828 8.647 3.189 0 5.233-1.797 5.884-4.402l0.045-0.18h3.841l-0.022 0.157c-0.629 4.448-4.47 7.884-9.748 7.884zm22.977 0c-6.716 0-10.759-4.694-10.759-12.039v-0.022c0-7.233 4.133-12.197 10.512-12.197s10.265 4.74 10.265 11.747v1.438h-16.823c0.089 4.807 2.74 7.614 6.895 7.614 2.965 0 5.054-1.482 5.728-3.481l0.067-0.202h3.841l-0.045 0.224c-0.764 3.864-4.582 6.918-9.681 6.918zm-0.269-20.799c-3.392 0-6.042 2.314-6.469 6.671h12.78c-0.382-4.537-2.897-6.671-6.311-6.671zm31.265 20.799c-4.29 0-6.401-1.931-6.401-6.401v-14.173h-3.414v-3.234h3.414v-6.312h4.043v6.312h4.447v3.234h-4.447v14.15c0 2.494 1.101 3.19 3.189 3.19 0.472 0 0.921-0.068 1.258-0.09v3.167c-0.494 0.067-1.325 0.157-2.089 0.157zm8.536 7.412c-0.764 0-1.595-0.09-2.089-0.179v-3.19c0.337 0.068 0.786 0.135 1.257 0.135 2.471 0 3.841-0.629 4.785-3.279l0.471-1.326-8.67-23.381h4.178l6.446 19.451h0.09l6.469-19.451h4.11l-9.119 24.819c-1.662 4.47-3.706 6.401-7.928 6.401zm20.125 0v-31.22h3.908v3.953h0.09c1.46-2.718 4.065-4.403 7.412-4.403 5.974 0 9.927 4.762 9.927 12.129v0.023c0 7.367-3.998 12.106-9.86 12.106-3.302 0-6.019-1.662-7.479-4.357h-0.09v11.769h-3.908zm10.646-10.871c4.133 0 6.693-3.324 6.693-8.647v-0.023c0-5.368-2.56-8.67-6.693-8.67-3.953 0-6.761 3.437-6.761 8.67v0.023c0 5.211 2.83 8.647 6.761 8.647zm24.258 3.459c-6.716 0-10.759-4.694-10.759-12.039v-0.022c0-7.233 4.133-12.197 10.512-12.197s10.264 4.74 10.264 11.747v1.438h-16.823c0.09 4.807 2.74 7.614 6.896 7.614 2.964 0 5.053-1.482 5.727-3.481l0.068-0.202h3.84l-0.045 0.224c-0.763 3.864-4.582 6.918-9.68 6.918zm-0.27-20.799c-3.391 0-6.042 2.314-6.468 6.671h12.78c-0.382-4.537-2.898-6.671-6.312-6.671zm22.529 20.799c-5.503 0-8.828-2.807-9.299-6.985l-0.023-0.202h3.909l0.044 0.224c0.472 2.336 2.202 3.706 5.391 3.706 3.167 0 5.054-1.325 5.054-3.436v-0.023c0-1.684-0.876-2.628-3.527-3.279l-3.706-0.898c-4.402-1.056-6.536-3.1-6.536-6.469v-0.023c0-4.02 3.527-6.873 8.58-6.873 5.121 0 8.378 2.988 8.67 6.896l0.023 0.292h-3.729l-0.022-0.157c-0.315-2.269-2.044-3.774-4.942-3.774-2.83 0-4.582 1.37-4.582 3.437v0.022c0 1.595 1.056 2.696 3.639 3.324l3.706 0.899c4.717 1.145 6.424 3.01 6.424 6.334v0.022c0 4.088-3.863 6.963-9.074 6.963zm22.82 0c-6.626 0-10.826-4.717-10.826-12.151v-0.023c0-7.367 4.29-12.084 10.781-12.084 5.817 0 9.254 3.864 9.748 7.862l0.022 0.179h-3.818l-0.045-0.179c-0.584-2.336-2.47-4.403-5.907-4.403-4.065 0-6.783 3.37-6.783 8.67v0.023c0 5.435 2.785 8.647 6.828 8.647 3.189 0 5.233-1.797 5.885-4.402l0.045-0.18h3.84l-0.022 0.157c-0.629 4.448-4.47 7.884-9.748 7.884zm13.364-0.449v-23.359h3.908v3.953h0.09c0.786-2.696 2.808-4.403 5.436-4.403 0.674 0 1.258 0.113 1.572 0.158v3.796c-0.314-0.113-1.145-0.225-2.089-0.225-3.032 0-5.009 2.111-5.009 5.66v14.42h-3.908zm16.397-27.312c-1.348 0-2.449-1.101-2.449-2.449 0-1.37 1.101-2.448 2.449-2.448 1.37 0 2.448 1.078 2.448 2.448 0 1.348-1.078 2.449-2.448 2.449zm-1.954 27.312v-23.359h3.908v23.359h-3.908zm9.231 7.861v-31.22h3.908v3.953h0.09c1.46-2.718 4.065-4.403 7.412-4.403 5.975 0 9.928 4.762 9.928 12.129v0.023c0 7.367-3.998 12.106-9.86 12.106-3.302 0-6.02-1.662-7.48-4.357h-0.09v11.769h-3.908zm10.646-10.871c4.133 0 6.694-3.324 6.694-8.647v-0.023c0-5.368-2.561-8.67-6.694-8.67-3.953 0-6.76 3.437-6.76 8.67v0.023c0 5.211 2.83 8.647 6.76 8.647zm22.237 3.459c-4.29 0-6.402-1.931-6.402-6.401v-14.173h-3.414v-3.234h3.414v-6.312h4.043v6.312h4.448v3.234h-4.448v14.15c0 2.494 1.101 3.19 3.19 3.19 0.472 0 0.921-0.068 1.258-0.09v3.167c-0.494 0.067-1.326 0.157-2.089 0.157zm15.722 7.412v-31.22h3.909v3.953h0.09c1.459-2.718 4.065-4.403 7.412-4.403 5.974 0 9.927 4.762 9.927 12.129v0.023c0 7.367-3.998 12.106-9.86 12.106-3.302 0-6.02-1.662-7.479-4.357h-0.09v11.769h-3.909zm10.647-10.871c4.133 0 6.693-3.324 6.693-8.647v-0.023c0-5.368-2.56-8.67-6.693-8.67-3.953 0-6.761 3.437-6.761 8.67v0.023c0 5.211 2.83 8.647 6.761 8.647zm14.644 3.01v-23.359h3.909v3.953h0.09c0.786-2.696 2.807-4.403 5.435-4.403 0.674 0 1.258 0.113 1.572 0.158v3.796c-0.314-0.113-1.145-0.225-2.089-0.225-3.032 0-5.008 2.111-5.008 5.66v14.42h-3.909zm22.753 0.449c-6.491 0-10.826-4.694-10.826-12.129v-0.045c0-7.434 4.358-12.084 10.804-12.084s10.826 4.627 10.826 12.084v0.045c0 7.457-4.357 12.129-10.804 12.129zm0.023-3.459c4.11 0 6.783-3.189 6.783-8.67v-0.045c0-5.48-2.695-8.625-6.828-8.625-4.065 0-6.806 3.167-6.806 8.625v0.045c0 5.503 2.718 8.67 6.851 8.67zm16.89-24.302c-1.347 0-2.448-1.101-2.448-2.449 0-1.37 1.101-2.448 2.448-2.448 1.371 0 2.449 1.078 2.449 2.448 0 1.348-1.078 2.449-2.449 2.449zm-5.278 35.196c-0.247 0-0.494 0-0.741-0.023v-3.436h0.606c2.538 0 3.459-0.786 3.459-3.392v-24.392h3.909v24.347c0 4.74-2.246 6.896-7.233 6.896zm22.169-7.435c-6.716 0-10.759-4.694-10.759-12.039v-0.022c0-7.233 4.133-12.197 10.512-12.197s10.265 4.74 10.265 11.747v1.438h-16.824c0.09 4.807 2.741 7.614 6.896 7.614 2.965 0 5.054-1.482 5.728-3.481l0.067-0.202h3.841l-0.045 0.224c-0.764 3.864-4.582 6.918-9.681 6.918zm-0.269-20.799c-3.392 0-6.042 2.314-6.469 6.671h12.78c-0.382-4.537-2.897-6.671-6.311-6.671zm23.919 20.799c-6.624 0-10.825-4.717-10.825-12.151v-0.023c0-7.367 4.29-12.084 10.785-12.084 5.81 0 9.25 3.864 9.74 7.862l0.03 0.179h-3.82l-0.05-0.179c-0.58-2.336-2.47-4.403-5.9-4.403-4.07 0-6.787 3.37-6.787 8.67v0.023c0 5.435 2.787 8.647 6.827 8.647 3.19 0 5.23-1.797 5.89-4.402l0.04-0.18h3.84l-0.02 0.157c-0.63 4.448-4.47 7.884-9.75 7.884zm20.96 0c-4.29 0-6.4-1.931-6.4-6.401v-14.173h-3.42v-3.234h3.42v-6.312h4.04v6.312h4.45v3.234h-4.45v14.15c0 2.494 1.1 3.19 3.19 3.19 0.47 0 0.92-0.068 1.26-0.09v3.167c-0.5 0.067-1.33 0.157-2.09 0.157zm14.57 0c-5.5 0-8.82-2.807-9.29-6.985l-0.03-0.202h3.91l0.05 0.224c0.47 2.336 2.2 3.706 5.39 3.706 3.16 0 5.05-1.325 5.05-3.436v-0.023c0-1.684-0.88-2.628-3.53-3.279l-3.7-0.898c-4.4-1.056-6.54-3.1-6.54-6.469v-0.023c0-4.02 3.53-6.873 8.58-6.873 5.12 0 8.38 2.988 8.67 6.896l0.02 0.292h-3.72l-0.03-0.157c-0.31-2.269-2.04-3.774-4.94-3.774-2.83 0-4.58 1.37-4.58 3.437v0.022c0 1.595 1.06 2.696 3.64 3.324l3.71 0.899c4.71 1.145 6.42 3.01 6.42 6.334v0.022c0 4.088-3.86 6.963-9.08 6.963z" fill="#F7F7F7"/>
</g>
<defs>
<linearGradient id="a" x2="531.47" y2="1145.4" gradientUnits="userSpaceOnUse">
<stop stop-color="#637CFF" offset="0"/>
<stop stop-color="#302DC2" offset="1"/>
</linearGradient>
<clipPath id="c">
<rect width="1500" height="696" fill="#fff"/>
</clipPath>
<clipPath id="b">
<rect width="3e3" height="1392" fill="#fff"/>
</clipPath>
</defs>
</svg>
