<svg width="1000" height="1000" viewBox="0 0 1000 1000" fill="none" xmlns="http://www.w3.org/2000/svg">
<rect width="1000" height="1000" fill="url(#paint0_linear_1_9)"/>
<path d="M283.318 893.578C238.631 893.578 210.701 862.855 210.701 813.549V813.334C210.701 764.135 238.738 733.412 283.318 733.412C328.006 733.412 355.936 764.242 355.936 813.334V813.549C355.936 862.748 328.113 893.578 283.318 893.578ZM283.318 872.309C313.074 872.309 331.336 849.32 331.336 813.549V813.334C331.336 777.348 312.752 754.682 283.318 754.682C253.992 754.682 235.193 777.24 235.193 813.334V813.549C235.193 849.643 253.885 872.309 283.318 872.309ZM376.131 928.598V777.992H399.334V797.436H399.871C406.639 784.008 419.1 775.844 435.213 775.844C464.002 775.844 482.479 798.402 482.479 834.496V834.604C482.479 870.59 463.895 893.256 435.535 893.256C419.529 893.256 406.531 885.092 399.871 871.986H399.334V928.598H376.131ZM429.197 873.275C447.459 873.275 458.846 858.451 458.846 834.604V834.496C458.846 810.434 447.352 795.717 429.197 795.717C411.58 795.717 399.227 810.971 399.227 834.496V834.604C399.227 858.021 411.688 873.275 429.197 873.275ZM548.758 893.256C515.564 893.256 495.477 870.59 495.477 834.926V834.818C495.477 799.477 515.887 775.844 547.576 775.844C579.266 775.844 598.709 798.617 598.709 832.562V840.404H518.68C519.109 861.781 530.818 874.242 549.295 874.242C563.045 874.242 572.176 867.152 575.076 858.666L575.398 857.807H597.42L597.205 858.988C593.553 876.928 576.15 893.256 548.758 893.256ZM547.684 794.857C532.645 794.857 521.043 805.062 519.002 823.969H575.721C573.787 804.418 562.83 794.857 547.684 794.857ZM616.756 891V777.992H639.959V795.072H640.496C646.404 783.578 658.006 775.844 675.086 775.844C699.9 775.844 714.188 791.85 714.188 817.846V891H690.877V822.25C690.877 805.277 682.928 795.717 666.814 795.717C650.486 795.717 639.959 807.533 639.959 825.15V891H616.756ZM751.893 891V756.723H704.412V735.99H823.328V756.723H775.955V891H751.893ZM895.838 893.578C861.033 893.578 838.045 877.035 836.111 849.75L836.004 848.139H859.422L859.637 849.535C861.785 863.822 876.072 872.738 896.805 872.738C917.537 872.738 930.643 863.393 930.643 848.891V848.783C930.643 836.322 922.156 829.555 901.639 825.043L884.773 821.498C854.373 815.053 839.656 801.088 839.656 778.1V777.992C839.764 751.566 863.074 733.412 895.838 733.412C928.172 733.412 950.301 751.029 951.912 777.025L952.02 778.852H928.602L928.494 777.348C926.346 762.953 913.885 754.252 895.516 754.252C876.287 754.359 864.041 763.49 864.041 777.025V777.133C864.041 788.734 872.85 795.824 892.186 800.014L909.158 803.559C941.17 810.326 954.92 823.324 954.92 847.279V847.387C954.92 875.639 932.576 893.578 895.838 893.578Z" fill="white"/>
<defs>
<linearGradient id="paint0_linear_1_9" x1="0" y1="0" x2="1000" y2="1000" gradientUnits="userSpaceOnUse">
<stop stop-color="#637CFF"/>
<stop offset="1" stop-color="#302DC2"/>
</linearGradient>
</defs>
</svg>
